<mxfile host="65bd71144e">
    <diagram id="0trghxRmpU9XSjLY0eA6" name="Timing">
        <mxGraphModel dx="1235" dy="800" grid="1" gridSize="10" guides="1" tooltips="1" connect="1" arrows="1" fold="1" page="1" pageScale="1" pageWidth="850" pageHeight="1100" math="0" shadow="0">
            <root>
                <mxCell id="0"/>
                <mxCell id="1" parent="0"/>
                <mxCell id="NifgKpPIH44gy4w7qDLK-1" value="" style="rounded=0;whiteSpace=wrap;html=1;" vertex="1" parent="1">
                    <mxGeometry x="70" y="50" width="760" height="530" as="geometry"/>
                </mxCell>
                <mxCell id="JX8Omq5UNXel4dX-xOj_-15" value="" style="endArrow=none;dashed=1;html=1;dashPattern=1 3;strokeWidth=2;" parent="1" edge="1">
                    <mxGeometry width="50" height="50" relative="1" as="geometry">
                        <mxPoint x="720" y="160" as="sourcePoint"/>
                        <mxPoint x="720" y="480" as="targetPoint"/>
                    </mxGeometry>
                </mxCell>
                <mxCell id="JX8Omq5UNXel4dX-xOj_-16" value="" style="endArrow=none;dashed=1;html=1;dashPattern=1 3;strokeWidth=2;" parent="1" edge="1">
                    <mxGeometry width="50" height="50" relative="1" as="geometry">
                        <mxPoint x="680" y="160" as="sourcePoint"/>
                        <mxPoint x="680" y="480" as="targetPoint"/>
                    </mxGeometry>
                </mxCell>
                <mxCell id="05Nu355221SefHzB-mGu-12" value="" style="endArrow=none;dashed=1;html=1;dashPattern=1 3;strokeWidth=2;" parent="1" edge="1">
                    <mxGeometry width="50" height="50" relative="1" as="geometry">
                        <mxPoint x="640" y="160" as="sourcePoint"/>
                        <mxPoint x="640" y="480" as="targetPoint"/>
                    </mxGeometry>
                </mxCell>
                <mxCell id="05Nu355221SefHzB-mGu-1" value="" style="endArrow=none;dashed=1;html=1;dashPattern=1 3;strokeWidth=2;" parent="1" edge="1">
                    <mxGeometry width="50" height="50" relative="1" as="geometry">
                        <mxPoint x="200" y="160" as="sourcePoint"/>
                        <mxPoint x="200" y="480" as="targetPoint"/>
                    </mxGeometry>
                </mxCell>
                <mxCell id="05Nu355221SefHzB-mGu-2" value="" style="endArrow=none;dashed=1;html=1;dashPattern=1 3;strokeWidth=2;" parent="1" edge="1">
                    <mxGeometry width="50" height="50" relative="1" as="geometry">
                        <mxPoint x="240" y="160" as="sourcePoint"/>
                        <mxPoint x="240" y="480" as="targetPoint"/>
                    </mxGeometry>
                </mxCell>
                <mxCell id="05Nu355221SefHzB-mGu-3" value="" style="endArrow=none;dashed=1;html=1;dashPattern=1 3;strokeWidth=2;" parent="1" edge="1">
                    <mxGeometry width="50" height="50" relative="1" as="geometry">
                        <mxPoint x="280" y="160" as="sourcePoint"/>
                        <mxPoint x="280" y="480" as="targetPoint"/>
                    </mxGeometry>
                </mxCell>
                <mxCell id="05Nu355221SefHzB-mGu-4" value="" style="endArrow=none;dashed=1;html=1;dashPattern=1 3;strokeWidth=2;rounded=0;strokeColor=#CC0000;" parent="1" edge="1">
                    <mxGeometry width="50" height="50" relative="1" as="geometry">
                        <mxPoint x="320" y="160" as="sourcePoint"/>
                        <mxPoint x="320" y="480" as="targetPoint"/>
                    </mxGeometry>
                </mxCell>
                <mxCell id="05Nu355221SefHzB-mGu-5" value="" style="endArrow=none;dashed=1;html=1;dashPattern=1 3;strokeWidth=2;strokeColor=#CC0000;endSize=10;" parent="1" edge="1">
                    <mxGeometry width="50" height="50" relative="1" as="geometry">
                        <mxPoint x="360" y="160" as="sourcePoint"/>
                        <mxPoint x="360" y="480" as="targetPoint"/>
                    </mxGeometry>
                </mxCell>
                <mxCell id="05Nu355221SefHzB-mGu-6" value="" style="endArrow=none;dashed=1;html=1;dashPattern=1 3;strokeWidth=2;" parent="1" edge="1">
                    <mxGeometry width="50" height="50" relative="1" as="geometry">
                        <mxPoint x="400" y="160" as="sourcePoint"/>
                        <mxPoint x="400" y="480" as="targetPoint"/>
                    </mxGeometry>
                </mxCell>
                <mxCell id="05Nu355221SefHzB-mGu-7" value="" style="endArrow=none;dashed=1;html=1;dashPattern=1 3;strokeWidth=2;" parent="1" edge="1">
                    <mxGeometry width="50" height="50" relative="1" as="geometry">
                        <mxPoint x="440" y="160" as="sourcePoint"/>
                        <mxPoint x="440" y="480" as="targetPoint"/>
                    </mxGeometry>
                </mxCell>
                <mxCell id="05Nu355221SefHzB-mGu-8" value="" style="endArrow=none;dashed=1;html=1;dashPattern=1 3;strokeWidth=2;" parent="1" edge="1">
                    <mxGeometry width="50" height="50" relative="1" as="geometry">
                        <mxPoint x="480" y="160" as="sourcePoint"/>
                        <mxPoint x="480" y="480" as="targetPoint"/>
                    </mxGeometry>
                </mxCell>
                <mxCell id="05Nu355221SefHzB-mGu-9" value="" style="endArrow=none;dashed=1;html=1;dashPattern=1 3;strokeWidth=2;strokeColor=#CC0000;" parent="1" edge="1">
                    <mxGeometry width="50" height="50" relative="1" as="geometry">
                        <mxPoint x="520" y="160" as="sourcePoint"/>
                        <mxPoint x="520" y="480" as="targetPoint"/>
                    </mxGeometry>
                </mxCell>
                <mxCell id="05Nu355221SefHzB-mGu-10" value="" style="endArrow=none;dashed=1;html=1;dashPattern=1 3;strokeWidth=2;strokeColor=#CC0000;" parent="1" edge="1">
                    <mxGeometry width="50" height="50" relative="1" as="geometry">
                        <mxPoint x="560" y="160" as="sourcePoint"/>
                        <mxPoint x="560" y="480" as="targetPoint"/>
                    </mxGeometry>
                </mxCell>
                <mxCell id="05Nu355221SefHzB-mGu-11" value="" style="endArrow=none;dashed=1;html=1;dashPattern=1 3;strokeWidth=2;strokeColor=#CC0000;" parent="1" edge="1">
                    <mxGeometry width="50" height="50" relative="1" as="geometry">
                        <mxPoint x="600" y="160" as="sourcePoint"/>
                        <mxPoint x="600" y="480" as="targetPoint"/>
                    </mxGeometry>
                </mxCell>
                <mxCell id="05Nu355221SefHzB-mGu-13" value="" style="endArrow=none;html=1;" parent="1" edge="1">
                    <mxGeometry width="50" height="50" relative="1" as="geometry">
                        <mxPoint x="160" y="470" as="sourcePoint"/>
                        <mxPoint x="820" y="470" as="targetPoint"/>
                    </mxGeometry>
                </mxCell>
                <mxCell id="05Nu355221SefHzB-mGu-14" value="" style="endArrow=none;html=1;" parent="1" edge="1">
                    <mxGeometry width="50" height="50" relative="1" as="geometry">
                        <mxPoint x="160" y="470" as="sourcePoint"/>
                        <mxPoint x="160" y="150" as="targetPoint"/>
                    </mxGeometry>
                </mxCell>
                <mxCell id="05Nu355221SefHzB-mGu-17" value="Logger" style="rounded=0;whiteSpace=wrap;html=1;" parent="1" vertex="1">
                    <mxGeometry x="100" y="420" width="60" height="20" as="geometry"/>
                </mxCell>
                <mxCell id="nTIAfdBSqcWWcpIveH5G-1" value="ThrottleAgent" style="rounded=0;whiteSpace=wrap;html=1;" parent="1" vertex="1">
                    <mxGeometry x="80" y="360" width="80" height="20" as="geometry"/>
                </mxCell>
                <mxCell id="nTIAfdBSqcWWcpIveH5G-2" value="ThrottleActor" style="rounded=0;whiteSpace=wrap;html=1;" parent="1" vertex="1">
                    <mxGeometry x="80" y="240" width="80" height="20" as="geometry"/>
                </mxCell>
                <mxCell id="gQW9EiFqsAd4SUoMeEuv-1" value="EventHandler" style="rounded=0;whiteSpace=wrap;html=1;" parent="1" vertex="1">
                    <mxGeometry x="80" y="180" width="80" height="20" as="geometry"/>
                </mxCell>
                <mxCell id="Kzw_bG9mAib2dcApt9Ap-1" value="" style="rounded=0;whiteSpace=wrap;html=1;" parent="1" vertex="1">
                    <mxGeometry x="160" y="360" width="80" height="20" as="geometry"/>
                </mxCell>
                <mxCell id="yllTXqh1UVrmICBuYdF6-1" value="Ready To Drive!" style="text;html=1;strokeColor=none;fillColor=none;align=center;verticalAlign=middle;whiteSpace=wrap;rounded=0;" parent="1" vertex="1">
                    <mxGeometry x="190" y="100" width="60" height="30" as="geometry"/>
                </mxCell>
                <mxCell id="yllTXqh1UVrmICBuYdF6-2" value="" style="rounded=0;whiteSpace=wrap;html=1;" parent="1" vertex="1">
                    <mxGeometry x="240" y="180" width="20" height="20" as="geometry"/>
                </mxCell>
                <mxCell id="yllTXqh1UVrmICBuYdF6-3" value="" style="endArrow=classic;html=1;exitX=0.5;exitY=1;exitDx=0;exitDy=0;entryX=0;entryY=0.5;entryDx=0;entryDy=0;" parent="1" source="yllTXqh1UVrmICBuYdF6-1" target="yllTXqh1UVrmICBuYdF6-2" edge="1">
                    <mxGeometry width="50" height="50" relative="1" as="geometry">
                        <mxPoint x="450" y="370" as="sourcePoint"/>
                        <mxPoint x="500" y="320" as="targetPoint"/>
                    </mxGeometry>
                </mxCell>
                <mxCell id="yllTXqh1UVrmICBuYdF6-4" value="" style="rounded=0;whiteSpace=wrap;html=1;" parent="1" vertex="1">
                    <mxGeometry x="320" y="240" width="40" height="20" as="geometry"/>
                </mxCell>
                <mxCell id="yllTXqh1UVrmICBuYdF6-5" value="" style="endArrow=classic;html=1;exitX=1;exitY=0.5;exitDx=0;exitDy=0;entryX=0;entryY=0.5;entryDx=0;entryDy=0;" parent="1" source="yllTXqh1UVrmICBuYdF6-2" target="yllTXqh1UVrmICBuYdF6-4" edge="1">
                    <mxGeometry width="50" height="50" relative="1" as="geometry">
                        <mxPoint x="480" y="300" as="sourcePoint"/>
                        <mxPoint x="530" y="250" as="targetPoint"/>
                    </mxGeometry>
                </mxCell>
                <mxCell id="JX8Omq5UNXel4dX-xOj_-27" value="&lt;font style=&quot;font-size: 6px;&quot;&gt;Resume throttle&lt;/font&gt;" style="edgeLabel;html=1;align=center;verticalAlign=middle;resizable=0;points=[];" parent="yllTXqh1UVrmICBuYdF6-5" vertex="1" connectable="0">
                    <mxGeometry x="0.2414" y="-2" relative="1" as="geometry">
                        <mxPoint y="-8" as="offset"/>
                    </mxGeometry>
                </mxCell>
                <mxCell id="yllTXqh1UVrmICBuYdF6-6" value="" style="endArrow=classic;html=1;exitX=0.75;exitY=0;exitDx=0;exitDy=0;entryX=0;entryY=0.5;entryDx=0;entryDy=0;" parent="1" source="yllTXqh1UVrmICBuYdF6-7" target="yllTXqh1UVrmICBuYdF6-4" edge="1">
                    <mxGeometry width="50" height="50" relative="1" as="geometry">
                        <mxPoint x="480" y="300" as="sourcePoint"/>
                        <mxPoint x="530" y="250" as="targetPoint"/>
                    </mxGeometry>
                </mxCell>
                <mxCell id="JX8Omq5UNXel4dX-xOj_-28" value="&lt;font style=&quot;font-size: 6px;&quot;&gt;pedal readings&lt;/font&gt;" style="edgeLabel;html=1;align=center;verticalAlign=middle;resizable=0;points=[];" parent="yllTXqh1UVrmICBuYdF6-6" vertex="1" connectable="0">
                    <mxGeometry x="-0.201" y="4" relative="1" as="geometry">
                        <mxPoint x="-10" y="24" as="offset"/>
                    </mxGeometry>
                </mxCell>
                <mxCell id="yllTXqh1UVrmICBuYdF6-7" value="" style="rounded=0;whiteSpace=wrap;html=1;" parent="1" vertex="1">
                    <mxGeometry x="280" y="360" width="40" height="20" as="geometry"/>
                </mxCell>
                <mxCell id="JX8Omq5UNXel4dX-xOj_-1" value="TimerSrv" style="rounded=0;whiteSpace=wrap;html=1;" parent="1" vertex="1">
                    <mxGeometry x="80" y="300" width="80" height="20" as="geometry"/>
                </mxCell>
                <mxCell id="JX8Omq5UNXel4dX-xOj_-2" value="" style="rounded=0;whiteSpace=wrap;html=1;" parent="1" vertex="1">
                    <mxGeometry x="360" y="300" width="30" height="20" as="geometry"/>
                </mxCell>
                <mxCell id="JX8Omq5UNXel4dX-xOj_-3" value="" style="rounded=0;whiteSpace=wrap;html=1;" parent="1" vertex="1">
                    <mxGeometry x="400" y="360" width="40" height="20" as="geometry"/>
                </mxCell>
                <mxCell id="JX8Omq5UNXel4dX-xOj_-4" value="" style="rounded=0;whiteSpace=wrap;html=1;" parent="1" vertex="1">
                    <mxGeometry x="440" y="240" width="40" height="20" as="geometry"/>
                </mxCell>
                <mxCell id="JX8Omq5UNXel4dX-xOj_-5" value="" style="endArrow=classic;html=1;exitX=0.5;exitY=0;exitDx=0;exitDy=0;entryX=0;entryY=0.5;entryDx=0;entryDy=0;" parent="1" source="JX8Omq5UNXel4dX-xOj_-3" target="JX8Omq5UNXel4dX-xOj_-4" edge="1">
                    <mxGeometry width="50" height="50" relative="1" as="geometry">
                        <mxPoint x="510" y="280" as="sourcePoint"/>
                        <mxPoint x="560" y="230" as="targetPoint"/>
                    </mxGeometry>
                </mxCell>
                <mxCell id="JX8Omq5UNXel4dX-xOj_-6" value="" style="rounded=0;whiteSpace=wrap;html=1;" parent="1" vertex="1">
                    <mxGeometry x="480" y="300" width="30" height="20" as="geometry"/>
                </mxCell>
                <mxCell id="JX8Omq5UNXel4dX-xOj_-7" value="" style="rounded=0;whiteSpace=wrap;html=1;" parent="1" vertex="1">
                    <mxGeometry x="520" y="180" width="20" height="20" as="geometry"/>
                </mxCell>
                <mxCell id="JX8Omq5UNXel4dX-xOj_-10" value="" style="endArrow=classic;html=1;exitX=0.5;exitY=0;exitDx=0;exitDy=0;entryX=0;entryY=0.5;entryDx=0;entryDy=0;" parent="1" source="JX8Omq5UNXel4dX-xOj_-6" target="JX8Omq5UNXel4dX-xOj_-7" edge="1">
                    <mxGeometry width="50" height="50" relative="1" as="geometry">
                        <mxPoint x="510" y="280" as="sourcePoint"/>
                        <mxPoint x="560" y="230" as="targetPoint"/>
                    </mxGeometry>
                </mxCell>
                <mxCell id="XopGo0bvcg7HHn06-w35-12" value="Fault Timer &lt;br&gt;expired" style="edgeLabel;html=1;align=center;verticalAlign=middle;resizable=0;points=[];fontSize=6;" parent="JX8Omq5UNXel4dX-xOj_-10" vertex="1" connectable="0">
                    <mxGeometry x="-0.1669" y="1" relative="1" as="geometry">
                        <mxPoint x="-4" y="16" as="offset"/>
                    </mxGeometry>
                </mxCell>
                <mxCell id="JX8Omq5UNXel4dX-xOj_-11" value="" style="endArrow=classic;html=1;exitX=1;exitY=0.5;exitDx=0;exitDy=0;fillColor=#f8cecc;strokeColor=#CC0000;" parent="1" source="JX8Omq5UNXel4dX-xOj_-7" edge="1">
                    <mxGeometry width="50" height="50" relative="1" as="geometry">
                        <mxPoint x="510" y="280" as="sourcePoint"/>
                        <mxPoint x="560" y="250" as="targetPoint"/>
                    </mxGeometry>
                </mxCell>
                <mxCell id="XopGo0bvcg7HHn06-w35-13" value="Suspend&lt;br&gt;Throttle&amp;nbsp;" style="edgeLabel;html=1;align=center;verticalAlign=middle;resizable=0;points=[];fontSize=6;" parent="JX8Omq5UNXel4dX-xOj_-11" vertex="1" connectable="0">
                    <mxGeometry x="-0.27" y="4" relative="1" as="geometry">
                        <mxPoint as="offset"/>
                    </mxGeometry>
                </mxCell>
                <mxCell id="JX8Omq5UNXel4dX-xOj_-14" value="" style="rounded=0;whiteSpace=wrap;html=1;" parent="1" vertex="1">
                    <mxGeometry x="600" y="420" width="120" height="20" as="geometry"/>
                </mxCell>
                <mxCell id="JX8Omq5UNXel4dX-xOj_-17" value="" style="endArrow=none;dashed=1;html=1;dashPattern=1 3;strokeWidth=2;" parent="1" edge="1">
                    <mxGeometry width="50" height="50" relative="1" as="geometry">
                        <mxPoint x="800" y="160" as="sourcePoint"/>
                        <mxPoint x="800" y="480" as="targetPoint"/>
                    </mxGeometry>
                </mxCell>
                <mxCell id="JX8Omq5UNXel4dX-xOj_-18" value="" style="endArrow=none;dashed=1;html=1;dashPattern=1 3;strokeWidth=2;" parent="1" edge="1">
                    <mxGeometry width="50" height="50" relative="1" as="geometry">
                        <mxPoint x="760" y="160" as="sourcePoint"/>
                        <mxPoint x="760" y="480" as="targetPoint"/>
                    </mxGeometry>
                </mxCell>
                <mxCell id="JX8Omq5UNXel4dX-xOj_-24" value="" style="endArrow=classic;html=1;fillColor=#CC0000;exitX=0.5;exitY=1;exitDx=0;exitDy=0;" parent="1" source="JX8Omq5UNXel4dX-xOj_-7" edge="1">
                    <mxGeometry width="50" height="50" relative="1" as="geometry">
                        <mxPoint x="600" y="320" as="sourcePoint"/>
                        <mxPoint x="560" y="430" as="targetPoint"/>
                    </mxGeometry>
                </mxCell>
                <mxCell id="XopGo0bvcg7HHn06-w35-14" value="Log events" style="edgeLabel;html=1;align=center;verticalAlign=middle;resizable=0;points=[];fontSize=6;" parent="JX8Omq5UNXel4dX-xOj_-24" vertex="1" connectable="0">
                    <mxGeometry x="-0.1912" relative="1" as="geometry">
                        <mxPoint as="offset"/>
                    </mxGeometry>
                </mxCell>
                <mxCell id="JX8Omq5UNXel4dX-xOj_-25" value="" style="rounded=0;whiteSpace=wrap;html=1;" parent="1" vertex="1">
                    <mxGeometry x="720" y="360" width="80" height="20" as="geometry"/>
                </mxCell>
                <mxCell id="JX8Omq5UNXel4dX-xOj_-30" value="&lt;font style=&quot;font-size: 8px;&quot;&gt;ThrottleActor is resumed after state machine receives RTD signal. It becomes active after pedal readings are received&lt;/font&gt;" style="text;html=1;strokeColor=none;fillColor=none;align=center;verticalAlign=middle;whiteSpace=wrap;rounded=0;" parent="1" vertex="1">
                    <mxGeometry x="210" y="500" width="215" height="30" as="geometry"/>
                </mxCell>
                <mxCell id="JX8Omq5UNXel4dX-xOj_-31" value="" style="endArrow=none;html=1;fontSize=8;fillColor=#CC0000;exitX=0.5;exitY=0;exitDx=0;exitDy=0;" parent="1" source="JX8Omq5UNXel4dX-xOj_-30" edge="1">
                    <mxGeometry width="50" height="50" relative="1" as="geometry">
                        <mxPoint x="490" y="360" as="sourcePoint"/>
                        <mxPoint x="320" y="470" as="targetPoint"/>
                    </mxGeometry>
                </mxCell>
                <mxCell id="JX8Omq5UNXel4dX-xOj_-32" value="&lt;font style=&quot;font-size: 8px;&quot;&gt;1. Fault detected; Actor calls timer service to start fault timers&amp;nbsp;&lt;br&gt;2. Items in pedal readings queue are exhausted and Actor goes into blocked state waiting for agent to produce more data. &lt;br&gt;&lt;br&gt;&lt;/font&gt;" style="text;html=1;strokeColor=none;fillColor=none;align=center;verticalAlign=middle;whiteSpace=wrap;rounded=0;" parent="1" vertex="1">
                    <mxGeometry x="300" y="70" width="230" height="50" as="geometry"/>
                </mxCell>
                <mxCell id="JX8Omq5UNXel4dX-xOj_-33" value="" style="endArrow=none;html=1;fontSize=8;fillColor=#CC0000;exitX=0.5;exitY=1;exitDx=0;exitDy=0;" parent="1" source="JX8Omq5UNXel4dX-xOj_-32" edge="1">
                    <mxGeometry width="50" height="50" relative="1" as="geometry">
                        <mxPoint x="490" y="350" as="sourcePoint"/>
                        <mxPoint x="360" y="160" as="targetPoint"/>
                    </mxGeometry>
                </mxCell>
                <mxCell id="JX8Omq5UNXel4dX-xOj_-34" value="" style="endArrow=classic;html=1;fontSize=8;fillColor=#CC0000;exitX=0.5;exitY=1;exitDx=0;exitDy=0;entryX=0;entryY=0.5;entryDx=0;entryDy=0;" parent="1" source="yllTXqh1UVrmICBuYdF6-4" target="JX8Omq5UNXel4dX-xOj_-2" edge="1">
                    <mxGeometry width="50" height="50" relative="1" as="geometry">
                        <mxPoint x="490" y="330" as="sourcePoint"/>
                        <mxPoint x="540" y="280" as="targetPoint"/>
                    </mxGeometry>
                </mxCell>
                <mxCell id="XopGo0bvcg7HHn06-w35-10" value="&lt;span style=&quot;font-size: 6px;&quot;&gt;start &lt;br&gt;timers&lt;/span&gt;" style="edgeLabel;html=1;align=center;verticalAlign=middle;resizable=0;points=[];fontSize=8;" parent="JX8Omq5UNXel4dX-xOj_-34" vertex="1" connectable="0">
                    <mxGeometry x="-0.2066" relative="1" as="geometry">
                        <mxPoint as="offset"/>
                    </mxGeometry>
                </mxCell>
                <mxCell id="XopGo0bvcg7HHn06-w35-2" value="&lt;font style=&quot;font-size: 8px;&quot;&gt;Timer service expires one of the fault timers and notifies the state machine&lt;/font&gt;" style="text;html=1;strokeColor=none;fillColor=none;align=center;verticalAlign=middle;whiteSpace=wrap;rounded=0;" parent="1" vertex="1">
                    <mxGeometry x="460" y="540" width="140" height="30" as="geometry"/>
                </mxCell>
                <mxCell id="XopGo0bvcg7HHn06-w35-3" value="" style="endArrow=none;html=1;rounded=0;strokeColor=#000000;strokeWidth=1;fontSize=8;fillColor=#CC0000;entryX=0.5;entryY=0;entryDx=0;entryDy=0;" parent="1" target="XopGo0bvcg7HHn06-w35-2" edge="1">
                    <mxGeometry width="50" height="50" relative="1" as="geometry">
                        <mxPoint x="520" y="470" as="sourcePoint"/>
                        <mxPoint x="490" y="470" as="targetPoint"/>
                    </mxGeometry>
                </mxCell>
                <mxCell id="XopGo0bvcg7HHn06-w35-5" value="&lt;font style=&quot;font-size: 8px;&quot;&gt;State machine switches to severe fault, logs events and state changes, and suspends the throttle actor&lt;/font&gt;" style="text;html=1;strokeColor=none;fillColor=none;align=center;verticalAlign=middle;whiteSpace=wrap;rounded=0;" parent="1" vertex="1">
                    <mxGeometry x="560" y="90" width="140" height="50" as="geometry"/>
                </mxCell>
                <mxCell id="XopGo0bvcg7HHn06-w35-6" value="" style="rounded=0;whiteSpace=wrap;html=1;" parent="1" vertex="1">
                    <mxGeometry x="560" y="360" width="20" height="20" as="geometry"/>
                </mxCell>
                <mxCell id="XopGo0bvcg7HHn06-w35-7" value="" style="endArrow=none;html=1;rounded=0;strokeColor=#000000;strokeWidth=1;fontSize=8;fillColor=#CC0000;exitX=0.25;exitY=1;exitDx=0;exitDy=0;" parent="1" source="XopGo0bvcg7HHn06-w35-5" edge="1">
                    <mxGeometry width="50" height="50" relative="1" as="geometry">
                        <mxPoint x="630" y="360" as="sourcePoint"/>
                        <mxPoint x="560" y="160" as="targetPoint"/>
                    </mxGeometry>
                </mxCell>
                <mxCell id="XopGo0bvcg7HHn06-w35-8" value="&lt;font style=&quot;font-size: 8px;&quot;&gt;Throttle agent is unblocked periodically and reads pedals. Throttle actor does not respond. After logger can run and log all events&amp;nbsp;&lt;/font&gt;" style="text;html=1;strokeColor=none;fillColor=none;align=center;verticalAlign=middle;whiteSpace=wrap;rounded=0;" parent="1" vertex="1">
                    <mxGeometry x="620" y="510" width="170" height="40" as="geometry"/>
                </mxCell>
                <mxCell id="XopGo0bvcg7HHn06-w35-9" value="" style="endArrow=none;html=1;rounded=0;strokeColor=#000000;strokeWidth=1;fontSize=8;fillColor=#CC0000;entryX=0.5;entryY=0;entryDx=0;entryDy=0;" parent="1" target="XopGo0bvcg7HHn06-w35-8" edge="1">
                    <mxGeometry width="50" height="50" relative="1" as="geometry">
                        <mxPoint x="600" y="470" as="sourcePoint"/>
                        <mxPoint x="630" y="320" as="targetPoint"/>
                    </mxGeometry>
                </mxCell>
                <mxCell id="kEJ6UPYAuY32hPmn_2Yr-1" value="&lt;b&gt;1&lt;/b&gt;" style="ellipse;whiteSpace=wrap;html=1;aspect=fixed;fillColor=#d5e8d4;strokeColor=#000000;" parent="1" vertex="1">
                    <mxGeometry x="170" y="90" width="20" height="20" as="geometry"/>
                </mxCell>
                <mxCell id="kEJ6UPYAuY32hPmn_2Yr-2" value="&lt;b&gt;2&lt;/b&gt;" style="ellipse;whiteSpace=wrap;html=1;aspect=fixed;fillColor=#d5e8d4;strokeColor=#000000;" parent="1" vertex="1">
                    <mxGeometry x="190" y="490" width="20" height="20" as="geometry"/>
                </mxCell>
                <mxCell id="kEJ6UPYAuY32hPmn_2Yr-3" value="&lt;b&gt;4&lt;/b&gt;" style="ellipse;whiteSpace=wrap;html=1;aspect=fixed;fillColor=#d5e8d4;strokeColor=#000000;" parent="1" vertex="1">
                    <mxGeometry x="440" y="530" width="20" height="20" as="geometry"/>
                </mxCell>
                <mxCell id="kEJ6UPYAuY32hPmn_2Yr-4" value="&lt;b&gt;3&lt;/b&gt;" style="ellipse;whiteSpace=wrap;html=1;aspect=fixed;fillColor=#d5e8d4;strokeColor=#000000;" parent="1" vertex="1">
                    <mxGeometry x="280" y="60" width="20" height="20" as="geometry"/>
                </mxCell>
                <mxCell id="kEJ6UPYAuY32hPmn_2Yr-5" value="&lt;b&gt;5&lt;/b&gt;" style="ellipse;whiteSpace=wrap;html=1;aspect=fixed;fillColor=#d5e8d4;strokeColor=#000000;" parent="1" vertex="1">
                    <mxGeometry x="550" y="80" width="20" height="20" as="geometry"/>
                </mxCell>
                <mxCell id="kEJ6UPYAuY32hPmn_2Yr-6" value="&lt;b&gt;6&lt;/b&gt;" style="ellipse;whiteSpace=wrap;html=1;aspect=fixed;fillColor=#d5e8d4;strokeColor=#000000;" parent="1" vertex="1">
                    <mxGeometry x="600" y="500" width="20" height="20" as="geometry"/>
                </mxCell>
                <mxCell id="XL2BATmsCj9ldBOkDHys-2" value="" style="endArrow=none;dashed=1;html=1;" edge="1" parent="1">
                    <mxGeometry width="50" height="50" relative="1" as="geometry">
                        <mxPoint x="560" y="430" as="sourcePoint"/>
                        <mxPoint x="600" y="430" as="targetPoint"/>
                        <Array as="points">
                            <mxPoint x="580" y="430"/>
                        </Array>
                    </mxGeometry>
                </mxCell>
                <mxCell id="XL2BATmsCj9ldBOkDHys-3" value="&lt;font style=&quot;font-size: 6px;&quot;&gt;unblocked&lt;/font&gt;" style="edgeLabel;html=1;align=center;verticalAlign=middle;resizable=0;points=[];" vertex="1" connectable="0" parent="XL2BATmsCj9ldBOkDHys-2">
                    <mxGeometry x="-0.2576" y="-1" relative="1" as="geometry">
                        <mxPoint x="5" y="-11" as="offset"/>
                    </mxGeometry>
                </mxCell>
            </root>
        </mxGraphModel>
    </diagram>
    <diagram id="HQm75dIrZodQ_AitB5Dh" name="Architecture">
        <mxGraphModel dx="764" dy="1657" grid="1" gridSize="10" guides="1" tooltips="1" connect="1" arrows="1" fold="1" page="1" pageScale="1" pageWidth="850" pageHeight="1100" math="0" shadow="0">
            <root>
                <mxCell id="0"/>
                <mxCell id="1" parent="0"/>
                <mxCell id="106" value="" style="rounded=0;whiteSpace=wrap;html=1;" parent="1" vertex="1">
                    <mxGeometry x="60" y="-250" width="680" height="800" as="geometry"/>
                </mxCell>
                <mxCell id="40" value="" style="ellipse;whiteSpace=wrap;html=1;" parent="1" vertex="1">
                    <mxGeometry x="200" y="160" width="180" height="90" as="geometry"/>
                </mxCell>
                <mxCell id="2" value="" style="endArrow=none;dashed=1;html=1;" parent="1" edge="1">
                    <mxGeometry width="50" height="50" relative="1" as="geometry">
                        <mxPoint x="160" y="270" as="sourcePoint"/>
                        <mxPoint x="640" y="270" as="targetPoint"/>
                    </mxGeometry>
                </mxCell>
                <mxCell id="3" value="" style="endArrow=none;dashed=1;html=1;" parent="1" edge="1">
                    <mxGeometry width="50" height="50" relative="1" as="geometry">
                        <mxPoint x="160" y="370" as="sourcePoint"/>
                        <mxPoint x="640" y="370" as="targetPoint"/>
                    </mxGeometry>
                </mxCell>
                <mxCell id="4" value="EventHandler" style="ellipse;whiteSpace=wrap;html=1;aspect=fixed;" parent="1" vertex="1">
                    <mxGeometry x="275" y="-150.13" width="80" height="80" as="geometry"/>
                </mxCell>
                <mxCell id="5" value="ThrottleAgent" style="rounded=1;whiteSpace=wrap;html=1;fillColor=#fad9d5;strokeColor=#000000;" parent="1" vertex="1">
                    <mxGeometry x="340" y="290" width="120" height="60" as="geometry"/>
                </mxCell>
                <mxCell id="13" value="" style="endArrow=classic;html=1;exitX=1;exitY=0.5;exitDx=0;exitDy=0;entryX=0;entryY=0.5;entryDx=0;entryDy=0;" parent="1" source="48" target="24" edge="1">
                    <mxGeometry width="50" height="50" relative="1" as="geometry">
                        <mxPoint x="460" y="430" as="sourcePoint"/>
                        <mxPoint x="590" y="430" as="targetPoint"/>
                    </mxGeometry>
                </mxCell>
                <mxCell id="15" value="" style="endArrow=classic;html=1;exitX=1;exitY=0.5;exitDx=0;exitDy=0;entryX=0;entryY=0.5;entryDx=0;entryDy=0;" parent="1" target="20" edge="1">
                    <mxGeometry width="50" height="50" relative="1" as="geometry">
                        <mxPoint x="460" y="319.71" as="sourcePoint"/>
                        <mxPoint x="590" y="320" as="targetPoint"/>
                    </mxGeometry>
                </mxCell>
                <mxCell id="17" value="" style="endArrow=classic;html=1;exitX=1;exitY=0.5;exitDx=0;exitDy=0;" parent="1" source="21" edge="1">
                    <mxGeometry width="50" height="50" relative="1" as="geometry">
                        <mxPoint x="210" y="319.71000000000004" as="sourcePoint"/>
                        <mxPoint x="340" y="319.71000000000004" as="targetPoint"/>
                    </mxGeometry>
                </mxCell>
                <mxCell id="20" value="Brakelight" style="rounded=0;whiteSpace=wrap;html=1;" parent="1" vertex="1">
                    <mxGeometry x="670" y="310" width="60" height="20" as="geometry"/>
                </mxCell>
                <mxCell id="21" value="APPS2" style="rounded=0;whiteSpace=wrap;html=1;" parent="1" vertex="1">
                    <mxGeometry x="70" y="310" width="60" height="20" as="geometry"/>
                </mxCell>
                <mxCell id="22" value="BSE" style="rounded=0;whiteSpace=wrap;html=1;" parent="1" vertex="1">
                    <mxGeometry x="70" y="330" width="60" height="20" as="geometry"/>
                </mxCell>
                <mxCell id="23" value="APPS1" style="rounded=0;whiteSpace=wrap;html=1;" parent="1" vertex="1">
                    <mxGeometry x="70" y="290" width="60" height="20" as="geometry"/>
                </mxCell>
                <mxCell id="24" value="UART" style="rounded=0;whiteSpace=wrap;html=1;" parent="1" vertex="1">
                    <mxGeometry x="670" y="420" width="60" height="20" as="geometry"/>
                </mxCell>
                <mxCell id="32" value="Throttle" style="rounded=0;whiteSpace=wrap;html=1;" parent="1" vertex="1">
                    <mxGeometry x="670" y="65" width="60" height="20" as="geometry"/>
                </mxCell>
                <mxCell id="33" value="" style="ellipse;strokeColor=#000000;" parent="1" vertex="1">
                    <mxGeometry x="220" y="190" width="30" height="30" as="geometry"/>
                </mxCell>
                <mxCell id="34" value="" style="ellipse;strokeColor=#000000;" parent="1" vertex="1">
                    <mxGeometry x="275" y="190" width="30" height="30" as="geometry"/>
                </mxCell>
                <mxCell id="36" value="" style="ellipse;strokeColor=#000000;" parent="1" vertex="1">
                    <mxGeometry x="330" y="190" width="30" height="30" as="geometry"/>
                </mxCell>
                <mxCell id="41" value="&lt;font color=&quot;#0000ee&quot; style=&quot;font-size: 11px;&quot;&gt;#FaultTimers_t&lt;/font&gt;" style="text;html=1;strokeColor=none;fillColor=none;align=center;verticalAlign=middle;whiteSpace=wrap;rounded=0;" parent="1" vertex="1">
                    <mxGeometry x="255" y="230" width="75" height="10" as="geometry"/>
                </mxCell>
                <mxCell id="42" value="" style="curved=1;endArrow=classic;html=1;entryX=0.5;entryY=1;entryDx=0;entryDy=0;" parent="1" target="4" edge="1">
                    <mxGeometry width="50" height="50" relative="1" as="geometry">
                        <mxPoint x="290" y="160" as="sourcePoint"/>
                        <mxPoint x="460" y="-122" as="targetPoint"/>
                        <Array as="points">
                            <mxPoint x="290" y="30"/>
                        </Array>
                    </mxGeometry>
                </mxCell>
                <mxCell id="43" value="&lt;font color=&quot;#0000ee&quot; style=&quot;font-size: 10px;&quot;&gt;#TimerID_t&lt;/font&gt;" style="edgeLabel;html=1;align=center;verticalAlign=middle;resizable=0;points=[];" parent="42" vertex="1" connectable="0">
                    <mxGeometry x="0.0738" y="3" relative="1" as="geometry">
                        <mxPoint x="33" y="-25" as="offset"/>
                    </mxGeometry>
                </mxCell>
                <mxCell id="46" value="State Machine" style="rounded=0;whiteSpace=wrap;html=1;strokeColor=#000000;" parent="1" vertex="1">
                    <mxGeometry x="450" y="-230" width="100" height="35" as="geometry"/>
                </mxCell>
                <mxCell id="48" value="Logger" style="ellipse;whiteSpace=wrap;html=1;aspect=fixed;strokeColor=#000000;" parent="1" vertex="1">
                    <mxGeometry x="360" y="390" width="80" height="80" as="geometry"/>
                </mxCell>
                <UserObject label="ThrottleActor" id="51">
                    <mxCell style="ellipse;strokeColor=#000000;" parent="1" vertex="1">
                        <mxGeometry x="475" y="30" width="90" height="90" as="geometry"/>
                    </mxCell>
                </UserObject>
                <mxCell id="53" value="" style="endArrow=classic;html=1;exitX=1;exitY=0.5;exitDx=0;exitDy=0;entryX=0;entryY=0.5;entryDx=0;entryDy=0;fillColor=#fad9d5;strokeColor=#ae4132;strokeWidth=2;" parent="1" source="51" target="32" edge="1">
                    <mxGeometry width="50" height="50" relative="1" as="geometry">
                        <mxPoint x="630" y="55" as="sourcePoint"/>
                        <mxPoint x="680" y="5" as="targetPoint"/>
                    </mxGeometry>
                </mxCell>
                <mxCell id="55" value="" style="endArrow=classic;html=1;entryX=0;entryY=0.5;entryDx=0;entryDy=0;" parent="1" target="48" edge="1">
                    <mxGeometry width="50" height="50" relative="1" as="geometry">
                        <mxPoint x="280" y="430" as="sourcePoint"/>
                        <mxPoint x="339.9957287525308" y="439.995728752531" as="targetPoint"/>
                    </mxGeometry>
                </mxCell>
                <mxCell id="58" value="&lt;font color=&quot;#0000ee&quot; style=&quot;font-size: 10px;&quot;&gt;#segment_t&lt;/font&gt;" style="edgeLabel;html=1;align=center;verticalAlign=middle;resizable=0;points=[];" parent="55" vertex="1" connectable="0">
                    <mxGeometry x="-0.0417" y="3" relative="1" as="geometry">
                        <mxPoint y="-7" as="offset"/>
                    </mxGeometry>
                </mxCell>
                <mxCell id="61" value="System" style="rounded=1;whiteSpace=wrap;html=1;strokeColor=#000000;" parent="1" vertex="1">
                    <mxGeometry x="230" y="420" width="50" height="20" as="geometry"/>
                </mxCell>
                <mxCell id="67" value="" style="endArrow=none;html=1;" parent="1" edge="1">
                    <mxGeometry width="50" height="50" relative="1" as="geometry">
                        <mxPoint x="160" y="-200" as="sourcePoint"/>
                        <mxPoint x="160" y="520" as="targetPoint"/>
                    </mxGeometry>
                </mxCell>
                <mxCell id="68" value="" style="endArrow=none;html=1;" parent="1" edge="1">
                    <mxGeometry width="50" height="50" relative="1" as="geometry">
                        <mxPoint x="640" y="-200" as="sourcePoint"/>
                        <mxPoint x="640" y="520" as="targetPoint"/>
                    </mxGeometry>
                </mxCell>
                <mxCell id="73" value="&lt;b&gt;5&lt;/b&gt;" style="text;html=1;strokeColor=#FFFFFF;fillColor=#bac8d3;align=center;verticalAlign=middle;whiteSpace=wrap;rounded=0;" parent="1" vertex="1">
                    <mxGeometry x="170" y="-160" width="30" height="20" as="geometry"/>
                </mxCell>
                <mxCell id="76" value="&lt;b&gt;1&lt;/b&gt;" style="text;html=1;strokeColor=#FFFFFF;fillColor=#bac8d3;align=center;verticalAlign=middle;whiteSpace=wrap;rounded=0;" parent="1" vertex="1">
                    <mxGeometry x="170" y="280" width="30" height="20" as="geometry"/>
                </mxCell>
                <mxCell id="77" value="&lt;b&gt;0&lt;/b&gt;" style="text;html=1;strokeColor=#FFFFFF;fillColor=#bac8d3;align=center;verticalAlign=middle;whiteSpace=wrap;rounded=0;" parent="1" vertex="1">
                    <mxGeometry x="170" y="380" width="30" height="20" as="geometry"/>
                </mxCell>
                <mxCell id="79" value="&lt;font style=&quot;font-size: 10px;&quot;&gt;&lt;b&gt;3&lt;/b&gt;&lt;/font&gt;" style="text;html=1;strokeColor=#FFFFFF;fillColor=#bac8d3;align=center;verticalAlign=middle;whiteSpace=wrap;rounded=0;" parent="1" vertex="1">
                    <mxGeometry x="170" y="170" width="30" height="20" as="geometry"/>
                </mxCell>
                <mxCell id="82" value="Interrupts" style="rounded=0;whiteSpace=wrap;html=1;" parent="1" vertex="1">
                    <mxGeometry x="70" y="-120.13" width="60" height="20" as="geometry"/>
                </mxCell>
                <mxCell id="83" value="" style="endArrow=classic;html=1;exitX=1;exitY=0.5;exitDx=0;exitDy=0;entryX=0;entryY=0.5;entryDx=0;entryDy=0;" parent="1" source="82" target="4" edge="1">
                    <mxGeometry width="50" height="50" relative="1" as="geometry">
                        <mxPoint x="320" y="-41.70999999999998" as="sourcePoint"/>
                        <mxPoint x="530" y="-41.999999999999716" as="targetPoint"/>
                    </mxGeometry>
                </mxCell>
                <mxCell id="88" value="&lt;font size=&quot;1&quot; color=&quot;#0000ee&quot; style=&quot;&quot;&gt;#event_t&lt;/font&gt;" style="edgeLabel;html=1;align=center;verticalAlign=middle;resizable=0;points=[];fontSize=10;" parent="83" vertex="1" connectable="0">
                    <mxGeometry x="0.1667" y="3" relative="1" as="geometry">
                        <mxPoint x="2" y="13" as="offset"/>
                    </mxGeometry>
                </mxCell>
                <mxCell id="85" value="" style="endArrow=classic;html=1;fontSize=10;exitX=0.5;exitY=1;exitDx=0;exitDy=0;dashed=1;entryX=0.5;entryY=0;entryDx=0;entryDy=0;" parent="1" source="46" target="86" edge="1">
                    <mxGeometry width="50" height="50" relative="1" as="geometry">
                        <mxPoint x="520" y="-130" as="sourcePoint"/>
                        <mxPoint x="500" y="-160" as="targetPoint"/>
                    </mxGeometry>
                </mxCell>
                <mxCell id="86" value="&lt;b&gt;Task Control&lt;/b&gt;" style="text;html=1;strokeColor=#b85450;fillColor=#f8cecc;align=center;verticalAlign=middle;whiteSpace=wrap;rounded=0;fontSize=10;gradientColor=#ea6b66;" parent="1" vertex="1">
                    <mxGeometry x="465" y="-150" width="70" height="20" as="geometry"/>
                </mxCell>
                <mxCell id="101" value="&lt;span style=&quot;color: rgb(0, 0, 238); font-size: 10px; background-color: rgb(255, 255, 255);&quot;&gt;#pedal_reading_t&amp;nbsp;&lt;/span&gt;" style="text;html=1;strokeColor=none;fillColor=none;align=center;verticalAlign=middle;whiteSpace=wrap;rounded=0;" parent="1" vertex="1">
                    <mxGeometry x="410" y="275" width="80" height="5" as="geometry"/>
                </mxCell>
                <mxCell id="107" value="" style="endArrow=none;dashed=1;html=1;" parent="1" edge="1">
                    <mxGeometry width="50" height="50" relative="1" as="geometry">
                        <mxPoint x="160" y="140" as="sourcePoint"/>
                        <mxPoint x="640" y="140" as="targetPoint"/>
                    </mxGeometry>
                </mxCell>
                <mxCell id="108" value="" style="endArrow=classic;html=1;exitX=0.5;exitY=0;exitDx=0;exitDy=0;entryX=0.5;entryY=1;entryDx=0;entryDy=0;fillColor=#fad9d5;strokeColor=#ae4132;strokeWidth=2;" parent="1" source="5" target="51" edge="1">
                    <mxGeometry width="50" height="50" relative="1" as="geometry">
                        <mxPoint x="374.99999999999955" y="230" as="sourcePoint"/>
                        <mxPoint x="540" y="230" as="targetPoint"/>
                    </mxGeometry>
                </mxCell>
                <mxCell id="110" value="&lt;b&gt;4&lt;/b&gt;" style="text;html=1;strokeColor=#FFFFFF;fillColor=#bac8d3;align=center;verticalAlign=middle;whiteSpace=wrap;rounded=0;" parent="1" vertex="1">
                    <mxGeometry x="170" y="30" width="30" height="20" as="geometry"/>
                </mxCell>
                <mxCell id="111" value="" style="endArrow=none;dashed=1;html=1;" parent="1" edge="1">
                    <mxGeometry width="50" height="50" relative="1" as="geometry">
                        <mxPoint x="160" y="19.999999999999773" as="sourcePoint"/>
                        <mxPoint x="640" y="19.999999999999773" as="targetPoint"/>
                    </mxGeometry>
                </mxCell>
                <mxCell id="114" value="" style="curved=1;endArrow=classic;html=1;entryX=1;entryY=0;entryDx=0;entryDy=0;exitX=0;exitY=0.5;exitDx=0;exitDy=0;" parent="1" source="51" target="40" edge="1">
                    <mxGeometry width="50" height="50" relative="1" as="geometry">
                        <mxPoint x="320" y="190" as="sourcePoint"/>
                        <mxPoint x="391.7157287525433" y="18.15427124745679" as="targetPoint"/>
                        <Array as="points">
                            <mxPoint x="380" y="100"/>
                        </Array>
                    </mxGeometry>
                </mxCell>
                <mxCell id="118" value="" style="endArrow=none;html=1;exitX=0.5;exitY=0;exitDx=0;exitDy=0;" parent="1" source="33" edge="1">
                    <mxGeometry width="50" height="50" relative="1" as="geometry">
                        <mxPoint x="250" y="190" as="sourcePoint"/>
                        <mxPoint x="290" y="160" as="targetPoint"/>
                    </mxGeometry>
                </mxCell>
                <mxCell id="119" value="" style="endArrow=none;html=1;exitX=0.5;exitY=0;exitDx=0;exitDy=0;" parent="1" source="34" edge="1">
                    <mxGeometry width="50" height="50" relative="1" as="geometry">
                        <mxPoint x="245" y="200" as="sourcePoint"/>
                        <mxPoint x="290" y="160" as="targetPoint"/>
                    </mxGeometry>
                </mxCell>
                <mxCell id="120" value="" style="endArrow=none;html=1;exitX=0.5;exitY=0;exitDx=0;exitDy=0;" parent="1" source="36" edge="1">
                    <mxGeometry width="50" height="50" relative="1" as="geometry">
                        <mxPoint x="300" y="200" as="sourcePoint"/>
                        <mxPoint x="290" y="160" as="targetPoint"/>
                    </mxGeometry>
                </mxCell>
                <mxCell id="122" value="" style="curved=1;endArrow=classic;html=1;entryX=0;entryY=0.5;entryDx=0;entryDy=0;exitX=0.5;exitY=0;exitDx=0;exitDy=0;" parent="1" source="4" target="46" edge="1">
                    <mxGeometry width="50" height="50" relative="1" as="geometry">
                        <mxPoint x="645" y="-135.13" as="sourcePoint"/>
                        <mxPoint x="670" y="-365.2600000000001" as="targetPoint"/>
                        <Array as="points">
                            <mxPoint x="360" y="-190"/>
                        </Array>
                    </mxGeometry>
                </mxCell>
            </root>
        </mxGraphModel>
    </diagram>
</mxfile>